<?xml version="1.0" standalone="no"?>
<!DOCTYPE svg PUBLIC "-//W3C//DTD SVG 20010904//EN"
 "http://www.w3.org/TR/2001/REC-SVG-20010904/DTD/svg10.dtd">
<svg version="1.0" xmlns="http://www.w3.org/2000/svg"
 width="1200.000000pt" height="1200.000000pt" viewBox="0 0 1200.000000 1200.000000"
 preserveAspectRatio="xMidYMid meet">
<metadata>
Created by potrace 1.11, written by Peter Selinger 2001-2013
</metadata>
<g transform="translate(0.000000,1200.000000) scale(0.100000,-0.100000)"
fill="#000000" stroke="none">
<path d="M5706 11958 c15 -24 48 -74 73 -111 25 -38 71 -116 101 -175 l56
-107 -52 -51 c-78 -76 -219 -305 -249 -404 -4 -14 -34 -81 -67 -150 -106 -224
-205 -550 -232 -765 -3 -22 -10 -62 -16 -88 -27 -122 -45 -460 -34 -655 4 -67
8 -121 10 -119 2 2 10 50 19 106 16 108 63 327 74 348 3 6 6 -70 6 -170 0
-157 4 -201 27 -323 24 -123 91 -375 113 -427 7 -16 4 -17 -21 -11 -77 18
-126 59 -164 132 -32 66 -35 44 -3 -34 35 -88 98 -155 164 -173 44 -12 47 -15
53 -54 4 -23 9 -112 12 -197 3 -85 8 -157 11 -160 3 -3 3 52 1 123 -3 70 -3
125 -1 123 15 -15 45 -189 58 -336 61 -710 73 -1024 41 -1059 -9 -10 -16 -22
-16 -26 0 -5 8 1 18 14 110 144 301 341 331 341 19 0 24 -52 17 -196 -5 -113
-11 -159 -31 -221 -30 -93 -84 -202 -106 -216 -48 -30 -105 33 -155 171 -15
41 -34 76 -43 79 -9 2 -23 8 -31 12 -16 9 -84 -64 -77 -83 2 -6 -12 -33 -31
-61 l-35 -50 40 45 40 45 22 -35 c12 -19 24 -45 27 -57 7 -27 79 -106 111
-122 36 -18 58 -13 111 29 40 32 61 61 100 138 29 57 55 124 63 162 7 35 15
58 18 50 8 -24 61 225 74 348 7 62 17 116 23 120 7 4 50 63 96 131 46 69 88
126 95 128 6 2 39 -45 73 -104 69 -120 215 -377 232 -408 6 -11 15 -27 19 -35
5 -8 24 -48 44 -89 34 -71 184 -341 190 -341 1 0 -3 32 -11 71 -11 59 -28 115
-70 236 -4 11 10 2 36 -22 l44 -40 -35 43 c-67 84 -76 102 -118 229 -24 70
-87 233 -142 362 -54 128 -99 235 -99 238 0 2 43 -34 95 -81 106 -97 135 -113
59 -33 -60 62 -119 137 -108 137 5 0 -17 26 -47 58 -59 60 -134 201 -145 271
-3 20 -10 44 -15 53 -11 20 -99 375 -99 398 0 10 11 25 25 34 24 16 25 16 25
-8 0 -14 8 -50 17 -80 13 -43 23 -58 45 -67 23 -9 27 -16 22 -35 -10 -41 82
-112 166 -128 29 -6 23 -1 -35 32 -84 48 -109 73 -100 101 3 11 12 18 19 15 7
-3 22 14 36 38 38 69 73 116 67 92 -6 -26 -1 -34 35 -57 37 -23 82 -23 74 1
-4 10 2 7 13 -8 l20 -25 20 23 c23 27 17 56 -10 49 -12 -3 -19 0 -20 9 -1 8
-2 19 -3 25 0 6 -12 17 -26 25 l-25 15 25 -6 c14 -4 37 -15 51 -25 15 -11 38
-22 52 -25 30 -8 47 -42 48 -98 0 -33 2 -38 9 -22 17 41 10 91 -25 163 -19 40
-41 75 -50 78 -26 11 -16 21 18 17 l32 -3 -33 15 c-18 9 -37 13 -41 10 -5 -2
-16 4 -26 15 -22 24 -8 26 42 5 45 -19 56 -19 23 0 -61 35 -137 57 -203 57
-67 1 -93 12 -66 29 11 7 11 9 -3 9 -22 0 -34 47 -42 167 l-7 91 53 11 53 10
-54 -5 -54 -5 6 56 c3 31 23 118 44 192 l38 136 6 -124 c8 -136 15 -162 79
-258 60 -90 136 -133 308 -171 28 -7 52 -15 52 -19 0 -17 92 -150 108 -156 12
-4 9 2 -9 22 -25 28 -79 108 -79 118 0 2 12 0 26 -5 14 -6 29 -8 33 -5 5 2 20
-26 35 -63 15 -37 36 -78 47 -92 19 -24 19 -23 -1 18 -34 69 -100 259 -82 234
70 -96 120 -152 170 -189 31 -24 62 -41 68 -39 6 3 17 -1 23 -7 18 -18 13 2
-8 31 -10 15 -32 55 -49 89 -29 57 -28 70 6 50 18 -12 35 2 29 25 -4 15 -1 18
15 12 18 -5 18 -4 8 16 -15 28 -10 32 26 20 16 -5 38 -8 49 -6 20 3 21 6 24
48 l1 21 25 -23 c34 -32 68 -105 60 -130 -5 -16 -3 -19 11 -13 15 6 14 2 -5
-25 -12 -18 -18 -32 -12 -32 6 0 11 4 11 9 0 5 7 11 15 15 12 4 13 2 3 -14
-15 -23 -4 -38 15 -22 11 9 16 6 26 -14 6 -15 14 -24 17 -22 2 3 0 17 -7 31
-10 22 -8 30 12 59 l24 33 9 -47 c7 -34 15 -49 32 -57 21 -9 22 -14 14 -36
-13 -34 6 -72 54 -108 42 -33 58 -35 25 -4 -34 31 -60 93 -53 122 3 14 10 25
15 25 5 0 19 19 31 43 19 36 23 39 26 20 4 -26 80 -67 106 -57 9 3 14 9 13 13
-2 3 1 23 8 45 l11 39 77 -67 c46 -41 77 -75 77 -87 0 -10 6 -19 13 -19 6 -1
24 -11 38 -23 26 -22 26 -23 32 -202 4 -99 9 -189 12 -200 7 -27 -50 -67 -135
-93 -60 -18 -63 -21 -37 -27 32 -9 152 -1 181 11 18 7 19 4 13 -40 -8 -54
-102 -241 -150 -296 -141 -163 -355 -390 -389 -413 -38 -26 -35 -32 3 -10 17
10 57 46 88 81 31 34 81 82 111 106 l56 44 -4 -72 c-3 -62 -9 -108 -37 -276
l-6 -35 15 32 c8 17 20 66 27 108 9 55 15 71 21 56 5 -13 14 -19 28 -16 11 2
20 0 20 -6 0 -17 26 -9 48 13 14 16 22 39 24 73 l3 50 18 -71 c15 -62 16 -85
6 -195 -7 -75 -18 -136 -28 -156 -9 -17 -68 -72 -131 -121 -63 -49 -131 -106
-149 -126 -50 -52 -66 -46 -33 12 29 48 96 222 89 229 -2 2 -14 -24 -27 -58
-26 -72 -104 -222 -117 -226 -6 -2 -25 12 -44 32 -19 20 -91 73 -160 120 -69
46 -140 97 -158 114 -18 17 -69 53 -114 81 -45 28 -102 67 -127 88 -36 29 -40
31 -20 8 14 -15 77 -64 140 -108 214 -148 453 -328 446 -336 -2 -1 -64 5 -137
14 -117 14 -149 14 -252 3 l-117 -13 6 -35 c12 -77 17 -99 40 -180 13 -46 22
-86 20 -88 -8 -8 131 -242 145 -243 3 0 50 53 104 118 130 155 130 155 112
112 -8 -19 -38 -84 -67 -143 -28 -60 -50 -111 -48 -113 2 -1 34 63 72 144 38
81 87 175 110 208 40 60 43 62 91 67 69 7 180 -27 169 -51 -13 -32 -17 -245
-4 -292 11 -42 68 -110 91 -110 5 0 -8 16 -29 35 -22 20 -44 51 -50 73 -26 85
-5 299 27 287 11 -4 12 -3 1 10 -17 20 -13 19 64 -15 50 -23 66 -35 66 -50 0
-20 -1 -20 -27 -4 l-28 16 29 -26 c30 -29 33 -47 26 -162 -4 -56 -2 -64 28
-102 l33 -41 -28 -4 c-15 -2 16 -5 69 -6 94 -1 214 18 248 40 12 8 11 9 -5 4
-71 -23 -94 -16 -182 53 -47 38 -50 43 -57 98 -5 42 -3 60 6 66 10 6 10 8 1 8
-7 0 -13 9 -13 21 0 16 4 20 18 14 9 -3 29 -9 44 -12 l27 -5 -6 133 c-3 74
-11 159 -19 190 -24 99 -16 199 16 199 28 0 108 68 129 109 53 103 90 355 91
614 l0 157 23 -4 c12 -3 40 -8 62 -11 21 -4 53 -14 69 -22 27 -14 32 -14 60 2
84 48 96 76 75 174 -16 75 -27 70 -21 -9 3 -44 0 -81 -8 -100 -17 -40 -63 -73
-91 -65 -18 6 -20 11 -13 48 5 23 8 57 9 75 0 17 2 32 5 32 9 0 1 305 -9 350
-6 25 -11 61 -11 81 0 33 2 35 29 31 41 -6 122 38 145 80 l18 33 -30 -36 c-38
-44 -77 -61 -128 -57 l-39 3 -8 88 c-7 79 -5 100 18 190 25 97 35 124 35 99 0
-7 10 -12 23 -11 12 0 31 -1 41 -3 15 -2 22 7 32 47 8 28 12 54 11 59 -2 6 -9
-11 -17 -37 -7 -26 -16 -50 -20 -52 -4 -3 -22 0 -39 6 -37 13 -40 40 -15 110
8 24 22 76 29 115 19 96 38 367 31 429 -72 605 -188 1046 -327 1248 -209 304
-420 490 -666 587 -35 14 -63 27 -63 30 0 3 27 32 61 65 104 103 121 95 -201
95 l-281 0 -11 -31 c-10 -29 -13 -31 -47 -25 -20 3 -90 8 -156 12 -109 5 -129
3 -210 -19 -49 -14 -115 -35 -145 -46 -30 -11 -73 -21 -95 -21 -22 0 -66 -11
-97 -24 l-58 -24 -10 42 c-6 22 -16 61 -23 86 l-13 45 -327 3 -327 2 26 -42z
m2014 -1132 c0 -14 3 -17 8 -9 6 9 12 7 25 -7 9 -11 17 -25 17 -31 0 -5 5 -7
12 -3 7 4 8 3 4 -5 -4 -6 0 -26 9 -44 17 -34 29 -187 19 -245 -6 -32 -7 -33
-58 -31 -94 3 -106 0 -106 -20 0 -22 -36 -35 -44 -15 -14 36 -133 -49 -162
-116 -10 -22 -20 -40 -23 -40 -4 0 -17 27 -29 60 -13 33 -27 60 -31 60 -4 0
-13 12 -19 26 -7 14 -17 22 -22 19 -6 -4 -7 1 -3 11 4 10 2 15 -4 11 -5 -3
-23 21 -38 54 -16 33 -35 65 -42 71 -17 14 -16 2 2 -30 8 -15 24 -46 35 -70
l21 -43 -33 17 c-18 9 -28 11 -22 4 15 -15 6 -50 -12 -50 -8 0 -14 -10 -14
-23 0 -19 79 -292 106 -367 3 -8 -7 -3 -22 10 -15 14 -24 19 -19 11 6 -10 4
-12 -4 -6 -7 4 -11 16 -8 26 3 11 2 17 -3 14 -4 -2 -15 15 -25 38 -9 23 -24
57 -33 75 -9 19 -17 40 -18 49 -1 8 -10 20 -19 27 -10 7 -20 38 -26 86 -6 41
-15 82 -20 92 -14 26 -11 67 8 99 15 25 15 34 5 63 -21 58 -22 74 -4 72 9 0
25 15 36 36 24 43 49 53 82 31 22 -14 24 -14 30 1 5 13 11 9 30 -17 13 -17 27
-40 30 -49 4 -10 10 -18 15 -18 12 0 11 17 -1 25 -5 3 -10 14 -10 23 1 16 2
16 14 0 14 -19 32 -25 21 -8 -8 13 4 52 14 46 4 -3 8 0 8 7 0 23 36 69 62 79
29 11 37 10 34 -2 -2 -5 16 -2 40 6 57 21 94 27 101 15 10 -15 55 11 48 29 -4
11 0 10 16 -4 12 -11 22 -29 22 -40z m226 -420 c3 -8 -4 -24 -17 -37 -21 -21
-22 -21 -36 -3 -12 16 -11 21 9 36 28 21 37 22 44 4z m-96 -75 c0 -14 -68 -62
-75 -52 -3 6 11 21 32 35 42 29 43 29 43 17z m-665 -183 c16 -24 22 -38 14
-31 -15 12 -53 73 -46 73 2 0 17 -19 32 -42z m-1548 -30 c-3 -8 -6 -5 -6 6 -1
11 2 17 5 13 3 -3 4 -12 1 -19z m-22 -8 c16 -18 17 -29 7 -122 l-10 -103 5
104 c4 85 3 103 -8 99 -11 -4 -15 -56 -21 -249 -4 -134 -3 -269 1 -299 6 -36
5 -57 -1 -61 -7 -5 -2 -33 14 -80 14 -41 29 -101 33 -134 3 -33 9 -71 12 -85
l5 -25 -16 22 c-17 23 -96 247 -96 274 0 17 -25 51 -79 106 -26 27 -36 31 -43
21 -6 -8 -8 41 -5 132 3 86 9 146 16 148 5 2 8 9 5 16 -3 7 0 23 5 37 9 21 10
19 10 -19 1 -39 3 -42 20 -32 11 5 23 24 26 42 4 17 14 38 21 46 8 7 14 23 14
34 0 25 21 101 30 108 4 3 9 13 13 23 8 22 20 22 42 -3z m1459 -18 c2 -4 -4
-18 -14 -31 l-18 -24 -11 21 c-9 17 -8 23 6 31 22 13 30 13 37 3z m-129 -73
c-4 -5 -11 -7 -16 -3 -5 3 -16 1 -23 -5 -9 -8 -18 -5 -34 10 -25 22 -27 30
-11 46 7 7 21 8 39 3 24 -7 28 -6 24 8 -2 10 3 2 11 -16 9 -18 13 -37 10 -43z
m473 -187 c34 -35 71 -80 81 -100 l19 -36 -37 -18 c-30 -14 -32 -16 -8 -11 15
3 34 6 41 7 8 0 37 -30 65 -69 42 -57 51 -77 50 -110 -1 -54 -6 -65 -59 -122
-25 -26 -53 -58 -62 -71 l-15 -23 -13 31 c-12 28 -11 33 11 58 l24 27 -27 -23
-26 -24 -7 24 c-4 12 -42 113 -85 223 -78 199 -109 295 -128 390 l-11 50 62
-70 c34 -39 90 -98 125 -133z m-1023 73 c-13 -69 -15 -125 -10 -275 l5 -188
-27 -7 c-15 -3 -47 -15 -70 -26 -98 -44 -90 -47 -104 34 -12 71 -11 73 19 132
48 96 173 367 186 403 18 52 19 19 1 -73z m475 -404 c28 -68 48 -127 45 -129
-3 -3 -39 5 -80 17 -42 12 -81 19 -88 15 -7 -4 -9 -3 -4 1 4 5 -16 20 -45 34
-37 19 -62 40 -86 76 l-34 50 5 110 c3 61 12 160 21 220 9 61 16 112 16 115 2
16 209 -405 250 -509z m-1477 449 c-3 -12 -8 -19 -11 -16 -5 6 5 36 12 36 2 0
2 -9 -1 -20z m843 -36 c-4 -20 -10 -34 -12 -31 -3 3 -2 21 2 41 3 21 9 35 11
32 3 -3 2 -21 -1 -42z m-416 -55 c0 -32 -6 -35 -32 -15 -11 8 -18 26 -18 45 0
31 0 31 25 15 17 -11 25 -25 25 -45z m508 6 c-12 -24 -26 -41 -31 -38 -6 3 -7
1 -3 -5 4 -6 0 -24 -9 -39 l-15 -28 6 40 c4 22 10 49 15 60 l8 20 1 -20 c1
-15 6 -11 21 18 27 52 33 46 7 -8z m-418 16 c0 -5 9 -11 20 -14 29 -7 25 -24
-7 -30 -19 -4 -32 0 -42 11 -10 12 -15 14 -18 5 -7 -18 -23 -16 -23 2 0 9 9
15 25 15 14 0 25 5 25 10 0 6 5 10 10 10 6 0 10 -4 10 -9z m370 -15 c0 -21
-17 -39 -24 -27 -4 6 -2 11 5 11 8 0 9 4 0 13 -8 10 -7 14 4 14 8 0 15 -5 15
-11z m-45 -76 c-3 -5 -1 -11 5 -15 5 -3 10 -13 10 -21 0 -12 -4 -12 -20 -2
-10 7 -17 14 -15 17 3 2 1 9 -4 15 -5 6 -6 26 -3 45 l5 34 13 -33 c8 -17 12
-36 9 -40z m25 9 c0 -28 -15 -23 -16 6 -1 14 2 22 7 19 5 -3 9 -14 9 -25z
m147 -31 c-3 -8 -6 -5 -6 6 -1 11 2 17 5 13 3 -3 4 -12 1 -19z m-195 -42 c7 4
8 2 4 -5 -9 -13 -26 -5 -25 12 0 9 2 8 6 -1 2 -6 10 -9 15 -6z m1329 -13 c13
-16 12 -17 -3 -4 -10 7 -18 15 -18 17 0 8 8 3 21 -13z m72 -61 c11 -12 17 -31
15 -48 -3 -28 -3 -28 -40 21 -20 27 -34 53 -32 57 7 10 34 -5 57 -30z m-1176
-14 c-3 -8 -6 -5 -6 6 -1 11 2 17 5 13 3 -3 4 -12 1 -19z m100 -30 c-3 -8 -6
-5 -6 6 -1 11 2 17 5 13 3 -3 4 -12 1 -19z m-125 -55 c-7 -36 -12 -27 -11 20
0 30 3 36 8 23 4 -11 6 -30 3 -43z m1291 -50 c18 -47 9 -57 -16 -19 -9 13 -13
33 -10 45 7 26 5 27 26 -26z m-56 -50 c-3 -10 -5 -2 -5 17 0 19 2 27 5 18 2
-10 2 -26 0 -35z m28 8 c3 -5 1 -12 -5 -16 -5 -3 -10 1 -10 9 0 18 6 21 15 7z
m-1280 -116 c4 -47 10 -83 14 -80 5 2 6 -7 3 -21 -3 -15 0 -29 6 -33 14 -8 3
-61 -13 -61 -7 0 -38 -11 -70 -25 -32 -14 -59 -24 -61 -23 -9 9 -54 166 -60
206 -5 43 -4 49 18 60 28 15 140 61 149 62 4 0 10 -38 14 -85z m12 48 c-3 -10
-5 -4 -5 12 0 17 2 24 5 18 2 -7 2 -21 0 -30z m1201 -21 c-26 -36 -108 -126
-108 -119 0 5 26 37 57 73 55 63 77 82 51 46z m179 -9 c-3 -3 -11 -2 -17 2 -9
6 -9 10 1 16 14 8 27 -7 16 -18z m-947 7 c8 -5 11 -10 5 -10 -5 0 -17 5 -25
10 -8 5 -10 10 -5 10 6 0 17 -5 25 -10z m65 -36 c14 -15 25 -31 25 -35 0 -14
-41 -9 -100 11 -30 11 -45 18 -32 16 18 -4 22 -1 18 11 -6 14 -4 14 10 2 13
-11 17 -10 25 4 14 24 26 21 54 -9z m278 -81 c-3 -10 -2 -15 2 -10 9 7 89
-122 81 -130 -8 -8 -92 54 -121 89 -25 30 -26 33 -9 45 12 9 20 10 25 2 4 -7
8 -5 12 5 9 22 18 20 10 -1z m-1496 -161 c1 -34 -1 -42 -7 -27 -11 25 -13 75
-2 75 4 0 8 -21 9 -48z m560 26 c-3 -8 -6 -5 -6 6 -1 11 2 17 5 13 3 -3 4 -12
1 -19z m168 13 c-12 -10 -65 -24 -65 -16 0 2 15 9 33 14 43 12 42 12 32 2z
m170 -51 c25 -11 -1 -11 -35 0 -20 6 -21 8 -5 8 11 0 29 -3 40 -8z m-25 -50
c0 -18 -3 -19 -20 -10 -22 12 -18 30 6 30 8 0 14 -9 14 -20z m1610 -25 c23
-12 29 -21 26 -38 -3 -12 -5 -74 -5 -137 -1 -99 -4 -120 -23 -150 l-21 -35 -8
29 c-11 41 -14 346 -4 346 4 0 19 -7 35 -15z m-1717 -90 c-3 -9 -8 -14 -10
-11 -3 3 -2 9 2 15 9 16 15 13 8 -4z m-988 -63 c-3 -3 -11 0 -18 7 -9 10 -8
11 6 5 10 -3 15 -9 12 -12z m2645 -567 c-11 -61 -29 -156 -41 -213 -11 -56
-20 -113 -19 -125 4 -40 0 -90 -5 -85 -5 5 -47 193 -62 276 -5 26 -1 39 19 60
14 15 47 66 74 114 27 48 50 86 51 84 1 -1 -7 -51 -17 -111z m274 -190 c0
-197 -4 -268 -18 -335 -34 -167 -40 -181 -106 -243 -33 -31 -67 -57 -75 -57
-8 0 -15 1 -15 3 0 1 16 99 34 217 43 271 142 672 165 668 14 -3 16 -34 15
-253z m-395 -75 c0 -8 -5 -3 -10 11 -8 21 -16 25 -43 24 -39 -1 -38 9 3 64
l26 34 12 -59 c7 -32 12 -66 12 -74z m8 -52 c-3 -8 -6 -5 -6 6 -1 11 2 17 5
13 3 -3 4 -12 1 -19z m-110 -55 c-3 -10 -5 -4 -5 12 0 17 2 24 5 18 2 -7 2
-21 0 -30z"/>
<path d="M8510 11992 c0 -4 45 -83 99 -174 132 -222 207 -308 271 -308 10 0
67 29 126 65 93 55 130 85 245 202 139 141 159 166 159 202 0 21 -2 21 -450
21 -247 0 -450 -3 -450 -8z"/>
<path d="M8849 9601 c15 -12 21 -23 16 -31 -5 -9 -4 -11 3 -6 18 11 14 34 -7
46 -31 16 -38 11 -12 -9z"/>
<path d="M8751 9544 c-12 -31 -19 -59 -17 -62 6 -5 6 -4 31 67 23 66 10 62
-14 -5z"/>
<path d="M8766 9391 c-36 -71 -66 -132 -66 -135 0 -2 36 12 80 31 44 20 78 38
77 40 -2 1 -32 -8 -67 -22 -35 -14 -65 -25 -67 -25 -1 0 25 52 58 116 33 64
58 119 55 121 -2 2 -34 -54 -70 -126z"/>
<path d="M9019 9318 c4 -28 6 -29 9 -9 2 13 0 27 -5 32 -6 6 -7 -3 -4 -23z"/>
<path d="M8965 9264 l-50 -14 45 6 c25 3 49 9 55 15 5 5 7 8 5 8 -3 -1 -27 -8
-55 -15z"/>
<path d="M7220 9266 c0 -19 121 -115 145 -116 6 0 -6 9 -25 21 -19 12 -54 39
-77 62 -24 23 -43 37 -43 33z"/>
<path d="M8835 9240 l-40 -7 35 -1 c19 0 46 4 60 8 32 10 2 10 -55 0z"/>
<path d="M8743 9214 c-3 -8 0 -33 7 -54 7 -21 10 -50 8 -64 -3 -15 -1 -29 4
-32 11 -7 6 86 -7 123 -6 18 -3 25 16 32 l24 10 -23 0 c-12 1 -25 -6 -29 -15z"/>
<path d="M7390 9140 c8 -5 20 -10 25 -10 6 0 3 5 -5 10 -8 5 -19 10 -25 10 -5
0 -3 -5 5 -10z"/>
<path d="M8060 8985 c0 -14 -3 -16 -11 -8 -9 9 -19 8 -41 -3 -17 -9 -27 -18
-25 -21 3 -3 16 2 28 11 17 11 26 13 36 5 9 -8 14 -7 19 5 4 9 4 20 0 23 -3 4
-6 -2 -6 -12z"/>
<path d="M7758 8973 c7 -3 16 -2 19 1 4 3 -2 6 -13 5 -11 0 -14 -3 -6 -6z"/>
<path d="M7798 8963 c7 -3 16 -2 19 1 4 3 -2 6 -13 5 -11 0 -14 -3 -6 -6z"/>
<path d="M7743 8923 c9 -2 23 -2 30 0 6 3 -1 5 -18 5 -16 0 -22 -2 -12 -5z"/>
<path d="M7890 8926 c0 -2 6 -9 14 -15 10 -9 15 -8 20 4 4 10 -1 15 -14 15
-11 0 -20 -2 -20 -4z"/>
<path d="M6670 8649 c-19 -11 -28 -19 -19 -19 9 0 27 9 40 20 29 23 25 23 -21
-1z"/>
<path d="M6667 8605 c-20 -14 -37 -28 -37 -31 0 -7 59 29 72 44 16 18 7 15
-35 -13z"/>
<path d="M6500 8540 c0 -11 4 -20 10 -20 5 0 7 6 4 13 -3 8 5 13 22 15 42 3
42 12 1 12 -30 0 -37 -4 -37 -20z"/>
<path d="M8721 8226 c14 -12 89 -55 89 -51 0 6 -77 55 -86 55 -4 0 -5 -2 -3
-4z"/>
<path d="M7390 8175 c-19 -22 -8 -25 13 -3 9 10 13 18 8 18 -5 0 -14 -7 -21
-15z"/>
<path d="M8860 8136 c0 -2 8 -10 18 -17 15 -13 16 -12 3 4 -13 16 -21 21 -21
13z"/>
<path d="M6560 8127 c0 -4 53 -45 178 -140 6 -5 12 -7 12 -4 0 3 -37 34 -82
69 -87 67 -108 82 -108 75z"/>
<path d="M9007 7943 c21 -39 39 -70 41 -68 5 5 -37 88 -58 115 -11 14 -3 -7
17 -47z"/>
<path d="M6760 7975 c0 -7 101 -57 106 -53 2 2 -21 16 -51 31 -30 15 -55 25
-55 22z"/>
<path d="M6931 7891 c20 -13 300 -94 305 -88 3 2 -31 14 -73 26 -99 28 -207
60 -230 67 -16 5 -16 4 -2 -5z"/>
<path d="M6790 7866 c0 -2 8 -10 18 -17 15 -13 16 -12 3 4 -13 16 -21 21 -21
13z"/>
<path d="M6850 7816 c27 -30 100 -91 100 -83 0 3 -28 29 -62 58 -35 29 -52 41
-38 25z"/>
<path d="M7258 7793 c7 -3 16 -2 19 1 4 3 -2 6 -13 5 -11 0 -14 -3 -6 -6z"/>
<path d="M9097 7690 c3 -25 12 -94 18 -155 7 -60 13 -92 14 -70 1 50 -17 204
-29 242 -7 22 -8 18 -3 -17z"/>
<path d="M8693 7610 c0 -36 2 -50 4 -32 2 17 2 47 0 65 -2 17 -4 3 -4 -33z"/>
<path d="M6578 7443 c7 -3 16 -2 19 1 4 3 -2 6 -13 5 -11 0 -14 -3 -6 -6z"/>
<path d="M6112 7385 c0 -16 2 -22 5 -12 2 9 2 23 0 30 -3 6 -5 -1 -5 -18z"/>
<path d="M9132 7335 c0 -16 2 -22 5 -12 2 9 2 23 0 30 -3 6 -5 -1 -5 -18z"/>
<path d="M6101 7314 c0 -11 3 -14 6 -6 3 7 2 16 -1 19 -3 4 -6 -2 -5 -13z"/>
<path d="M6091 7224 c0 -11 3 -14 6 -6 3 7 2 16 -1 19 -3 4 -6 -2 -5 -13z"/>
<path d="M8762 7195 c0 -16 2 -22 5 -12 2 9 2 23 0 30 -3 6 -5 -1 -5 -18z"/>
<path d="M6076 7144 c-4 -20 -5 -38 -3 -40 3 -3 8 11 11 32 4 20 5 38 3 40 -3
3 -8 -11 -11 -32z"/>
<path d="M8771 7071 c-1 -70 2 -92 10 -84 8 8 8 35 1 95 l-9 83 -2 -94z"/>
<path d="M6062 7070 c0 -14 2 -19 5 -12 2 6 2 18 0 25 -3 6 -5 1 -5 -13z"/>
<path d="M6051 7024 c0 -11 3 -14 6 -6 3 7 2 16 -1 19 -3 4 -6 -2 -5 -13z"/>
<path d="M9141 6998 c-1 -48 19 -202 25 -195 2 2 -2 57 -10 123 -8 70 -14 100
-15 72z"/>
<path d="M6032 6943 c-22 -94 -23 -111 -8 -71 15 37 32 128 24 128 -2 0 -9
-26 -16 -57z"/>
<path d="M5510 6960 c-6 -11 -8 -20 -6 -20 3 0 10 9 16 20 6 11 8 20 6 20 -3
0 -10 -9 -16 -20z"/>
<path d="M5671 6918 c-2 -57 30 -181 61 -240 38 -72 93 -114 134 -104 42 11
81 64 114 153 16 46 30 89 29 96 0 7 -13 -24 -29 -68 -33 -90 -80 -145 -127
-145 -38 0 -95 43 -123 91 -13 24 -30 85 -41 143 -9 55 -18 89 -18 74z"/>
<path d="M8485 6901 c-16 -4 -29 -12 -28 -19 2 -6 -3 -9 -11 -6 -8 3 -21 -5
-30 -18 -21 -30 -20 -45 2 -26 32 29 95 50 132 43 55 -9 100 -26 100 -36 0 -5
-18 -20 -41 -35 -22 -14 -39 -28 -36 -30 8 -8 58 21 91 51 28 26 29 27 9 46
-10 11 -37 21 -58 24 -22 2 -53 6 -70 9 -16 2 -43 1 -60 -3z"/>
<path d="M8830 6886 c0 -2 8 -10 18 -17 15 -13 16 -12 3 4 -13 16 -21 21 -21
13z"/>
<path d="M8925 6780 c10 -11 20 -20 23 -20 3 0 -3 9 -13 20 -10 11 -20 20 -23
20 -3 0 3 -9 13 -20z"/>
<path d="M8950 6746 c0 -2 8 -10 18 -17 15 -13 16 -12 3 4 -13 16 -21 21 -21
13z"/>
<path d="M6941 6714 c0 -11 3 -14 6 -6 3 7 2 16 -1 19 -3 4 -6 -2 -5 -13z"/>
<path d="M7360 6685 c13 -14 26 -25 28 -25 3 0 -5 11 -18 25 -13 14 -26 25
-28 25 -3 0 5 -11 18 -25z"/>
<path d="M9020 6650 c6 -11 13 -20 16 -20 2 0 0 9 -6 20 -6 11 -13 20 -16 20
-2 0 0 -9 6 -20z"/>
<path d="M6922 6590 c-8 -35 -25 -83 -38 -106 -42 -72 -143 -159 -235 -203
-164 -78 -195 -105 -205 -176 l-6 -40 26 34 c35 47 65 65 186 112 77 30 116
52 147 82 75 72 148 241 141 324 -3 35 -4 33 -16 -27z"/>
<path d="M6521 6631 c-8 -5 -10 -14 -6 -21 5 -8 4 -11 -3 -6 -18 11 -42 -48
-42 -102 0 -68 34 -129 94 -169 63 -43 71 -42 29 3 -69 73 -89 158 -64 267 5
20 8 37 7 37 0 0 -7 -4 -15 -9z"/>
<path d="M9202 6570 c0 -14 2 -19 5 -12 2 6 2 18 0 25 -3 6 -5 1 -5 -13z"/>
<path d="M8950 6528 c-26 -100 -53 -185 -66 -208 -8 -14 -43 -93 -77 -176 -65
-153 -101 -213 -284 -472 -43 -60 -113 -150 -156 -201 -68 -80 -81 -91 -110
-91 -51 0 -350 58 -477 92 -63 16 -133 32 -155 34 -22 2 -55 9 -72 15 -18 6
-38 7 -44 3 -8 -4 -9 -3 -5 4 4 7 3 12 -2 12 -12 0 -33 -25 -27 -32 3 -3 -10
-4 -30 -3 -24 1 -54 -10 -100 -36 -94 -55 -155 -80 -201 -83 -23 -2 -46 -6
-51 -9 -24 -15 -78 52 -135 168 -59 120 -64 143 -43 196 5 13 -3 20 -31 29
-37 13 -39 12 -66 -21 -34 -40 -76 -112 -188 -316 -94 -172 -94 -171 -140 -73
-13 27 -25 48 -27 47 -7 -8 26 -97 46 -126 12 -17 20 -35 17 -40 -11 -17 58
-98 148 -173 25 -21 27 -27 17 -47 -7 -12 -10 -27 -7 -34 2 -7 5 -5 5 4 1 9
10 28 22 43 40 50 37 51 434 -170 72 -40 150 -80 175 -90 25 -10 65 -30 90
-45 63 -38 134 -60 205 -65 33 -2 52 -1 43 2 -17 5 -16 8 2 43 10 21 27 42 37
45 9 4 63 11 119 17 104 9 126 16 327 93 66 25 124 46 130 46 6 0 22 -12 35
-27 20 -24 21 -25 10 -4 -9 15 -9 25 -3 27 16 6 302 184 371 231 32 22 100 61
149 87 50 25 117 61 150 79 33 18 88 43 122 57 74 29 75 37 2 16 l-53 -16 35
37 c108 114 201 265 254 410 23 64 23 68 10 158 -23 149 -92 306 -186 421 -31
38 -62 88 -68 110 -13 48 -36 84 -27 42 3 -14 9 -34 13 -43 3 -10 -19 2 -53
29 -32 25 -62 46 -66 46 -4 0 -12 -19 -18 -42z m-2362 -1280 c-15 -43 -26 -51
-42 -26 -11 18 33 93 46 80 7 -7 5 -25 -4 -54z"/>
<path d="M6188 6195 c16 -22 59 -65 95 -95 36 -30 69 -64 72 -75 13 -43 38
-95 46 -95 5 0 10 -53 12 -117 l3 -118 2 123 c1 67 -2 122 -6 122 -10 0 -42
65 -42 84 0 16 -42 61 -95 101 -22 16 -57 48 -79 70 l-39 40 31 -40z"/>
<path d="M5460 6170 c0 -8 9 -42 19 -75 11 -35 15 -66 10 -75 -4 -8 -20 -53
-35 -100 -82 -261 -156 -410 -292 -592 -105 -140 -199 -224 -459 -409 -102
-73 -114 -93 -16 -27 97 66 352 206 343 188 -6 -10 -10 -36 -10 -57 0 -32 -11
-52 -71 -128 -39 -50 -82 -113 -96 -142 -34 -71 -52 -84 -118 -89 -32 -2 -74
-8 -94 -13 -67 -18 -194 -24 -240 -11 l-43 11 28 31 c16 16 58 51 94 76 88 62
93 68 36 40 -148 -70 -359 -316 -477 -555 l-43 -88 -9 42 c-7 39 -10 41 -28
30 -10 -6 -19 -15 -19 -19 0 -17 -56 -7 -68 12 -7 11 -19 20 -27 20 -8 0 -14
3 -14 8 5 30 -4 55 -21 59 -14 4 -21 17 -26 49 -3 24 -10 47 -15 50 -15 9
-178 -127 -343 -286 -129 -124 -310 -321 -396 -429 -37 -47 -101 -115 -141
-152 -41 -36 -114 -101 -164 -144 -98 -87 -189 -178 -212 -212 -11 -17 -12
-26 -3 -42 14 -27 18 -26 -160 -46 -80 -9 -148 -20 -151 -23 -17 -17 -19 -51
-4 -65 17 -17 28 -19 255 -43 188 -20 356 -49 376 -65 9 -7 13 -28 12 -55 l-1
-44 -109 -55 c-269 -137 -486 -294 -671 -485 l-127 -131 0 -460 0 -460 28 20
c15 10 73 62 129 115 76 71 124 106 185 137 88 44 182 105 313 201 44 32 101
73 127 91 26 17 82 59 124 91 47 36 118 77 178 104 56 24 110 52 122 63 11 10
25 19 31 19 6 0 21 9 35 19 l25 20 38 -52 c60 -81 211 -263 296 -357 42 -47
105 -121 140 -165 58 -73 293 -352 422 -501 81 -94 181 -220 361 -454 227
-295 263 -336 401 -455 l120 -105 578 0 c500 0 580 2 593 15 9 8 13 19 9 25
-4 6 1 7 11 3 14 -5 16 -3 11 11 -4 10 -3 15 3 11 6 -3 10 -1 10 4 0 18 3 25
14 38 32 36 37 45 32 50 -3 4 0 16 8 28 21 32 32 155 15 166 -8 5 -9 9 -4 9
12 0 13 69 3 86 -4 6 -9 23 -12 39 -3 16 -12 32 -20 37 -8 4 -13 16 -12 25 3
17 -3 26 -36 64 -11 11 -13 19 -6 19 6 0 1 8 -10 19 -12 10 -22 23 -22 30 0 6
-4 11 -10 11 -5 0 -25 22 -43 50 -19 27 -36 47 -39 44 -3 -3 -16 10 -29 28
-12 18 -35 45 -51 60 -15 15 -28 32 -28 39 0 7 -3 9 -6 6 -8 -7 -50 44 -47 55
2 5 -4 8 -12 8 -8 0 -15 7 -15 15 0 9 -7 18 -15 21 -8 4 -15 11 -15 17 0 6 -7
17 -15 26 -25 27 -95 120 -95 127 0 4 -8 13 -17 21 -11 9 -12 12 -3 7 8 -4 3
6 -11 22 -15 16 -25 34 -22 41 2 6 -5 14 -17 18 -11 3 -18 11 -15 16 4 5 -2 9
-11 9 -10 0 -15 3 -12 6 3 3 -9 21 -28 39 -19 19 -34 39 -34 45 0 5 -8 10 -17
10 -9 0 -14 3 -10 6 3 3 -19 32 -49 63 -29 31 -54 59 -54 63 0 3 -13 19 -29
35 -15 16 -32 40 -36 53 -4 14 -17 34 -29 45 -12 11 -21 27 -21 35 0 8 -8 21
-17 28 -10 7 -16 18 -13 23 4 5 -1 12 -9 15 -9 3 -13 11 -9 17 3 6 -7 21 -23
35 -16 13 -24 21 -17 18 15 -8 -28 75 -47 91 -8 7 -11 13 -6 13 5 0 -4 12 -20
27 -18 16 -24 28 -17 30 8 3 2 15 -16 31 -16 15 -36 39 -46 54 -9 15 -21 25
-26 22 -5 -3 -7 1 -4 8 3 7 -8 27 -24 44 -21 22 -27 34 -19 42 8 8 4 9 -13 6
-16 -4 -20 -3 -11 3 9 7 6 13 -13 23 -14 7 -25 19 -25 25 0 7 -9 20 -20 30
-11 10 -20 24 -20 31 0 7 -10 20 -22 28 -12 9 -18 16 -13 16 6 0 6 3 0 8 -6 4
-16 19 -22 35 -7 15 -20 27 -28 27 -12 0 -14 4 -5 19 7 14 7 20 -2 23 -6 2
-13 14 -15 27 -2 12 -10 29 -18 37 -13 13 -16 23 -15 49 0 3 -6 18 -15 35 -18
35 -19 44 -2 34 7 -5 6 -1 -3 10 -8 10 -15 28 -17 39 -2 12 -6 29 -10 37 -8
20 -12 40 -15 70 -1 14 -5 30 -10 36 -4 6 -9 19 -11 30 -2 10 -13 35 -26 54
-19 30 -21 44 -16 97 3 34 7 108 9 165 3 58 9 104 15 106 5 2 8 9 5 16 -3 8 2
20 10 29 9 9 16 23 16 31 0 9 6 16 13 16 8 0 24 9 37 20 13 11 27 20 32 20 4
0 10 0 13 1 2 1 23 5 45 10 26 6 48 6 59 -1 10 -5 34 -11 52 -12 19 -1 40 -10
47 -19 7 -10 21 -16 33 -14 11 2 22 -2 26 -10 3 -8 14 -15 25 -15 10 0 17 -4
13 -9 -3 -5 4 -12 15 -16 11 -3 20 -13 20 -21 0 -8 3 -13 8 -13 23 4 32 -4 32
-26 0 -14 3 -24 8 -24 20 3 30 -3 42 -28 8 -16 14 -30 14 -33 1 -3 13 -19 28
-35 15 -16 25 -32 22 -36 -2 -5 5 -13 16 -19 12 -6 19 -18 16 -25 -2 -7 2 -19
9 -25 8 -7 12 -16 9 -21 -3 -5 -1 -9 4 -9 6 0 22 -23 36 -51 34 -63 133 -198
152 -206 8 -3 12 -9 9 -13 -3 -4 2 -10 10 -14 8 -3 15 -12 15 -20 0 -8 3 -16
8 -18 4 -1 17 -16 30 -32 12 -16 22 -24 22 -17 0 14 34 -20 43 -42 4 -10 10
-17 14 -16 20 3 27 -2 13 -11 -13 -8 -13 -10 2 -10 10 0 27 -13 40 -30 12 -17
27 -30 34 -30 7 0 16 -9 19 -20 4 -11 10 -18 15 -15 12 7 32 -30 22 -40 -4 -5
-1 -5 5 -1 14 8 93 -66 93 -86 0 -6 2 -9 5 -6 8 8 68 -53 84 -84 8 -16 16 -26
19 -23 7 7 42 -67 36 -76 -3 -5 2 -9 11 -9 11 0 14 -7 11 -25 -3 -15 -1 -23 5
-20 5 4 6 11 3 17 -4 7 -2 8 5 4 6 -4 9 -11 6 -16 -3 -5 2 -22 12 -37 10 -15
12 -24 6 -20 -9 6 -11 3 -7 -7 3 -9 10 -16 14 -16 7 0 16 -26 25 -70 5 -24 31
-80 37 -80 4 0 8 -5 8 -11 0 -5 -6 -7 -12 -3 -7 4 -5 -2 6 -14 10 -12 20 -30
21 -39 3 -38 18 -78 32 -90 9 -7 10 -13 4 -17 -10 -7 35 -125 52 -137 5 -3 8
-9 8 -13 -4 -26 1 -46 9 -41 5 3 10 2 10 -4 0 -5 -6 -12 -12 -14 -8 -3 -5 -6
6 -6 12 -1 16 -6 12 -17 -4 -9 -2 -13 5 -8 8 4 9 -1 4 -15 -4 -13 -2 -21 5
-21 7 0 10 -7 6 -15 -3 -8 -1 -15 4 -15 5 0 13 -12 16 -27 4 -16 15 -40 25
-54 10 -14 23 -46 30 -72 6 -26 15 -45 19 -42 4 3 13 -18 20 -45 7 -28 18 -50
25 -50 11 0 23 -34 28 -83 1 -10 7 -15 15 -12 10 4 12 0 8 -11 -4 -11 -2 -15
7 -11 10 4 13 -2 11 -20 -1 -14 0 -22 3 -19 4 3 14 -12 24 -35 10 -22 23 -38
29 -34 5 3 7 0 4 -8 -3 -8 6 -28 20 -45 15 -16 26 -35 26 -42 0 -6 5 -8 12 -4
6 4 8 3 4 -4 -7 -12 13 -62 26 -62 5 0 6 -5 2 -12 -5 -8 -2 -9 10 -5 13 5 17
3 13 -7 -3 -7 0 -19 6 -25 7 -7 13 -16 13 -22 1 -5 2 -14 3 -21 0 -6 4 -9 7
-5 9 9 33 -18 37 -41 2 -11 9 -27 16 -36 7 -9 10 -16 5 -16 -4 0 4 -12 18 -27
14 -16 25 -38 23 -51 -1 -14 6 -27 17 -33 16 -9 17 -13 6 -27 -11 -13 -11 -14
1 -7 11 6 13 4 8 -8 -3 -9 -1 -17 5 -19 10 -4 17 -23 20 -55 1 -7 5 -13 10
-13 5 0 7 -4 4 -8 -3 -5 2 -21 9 -36 8 -16 12 -33 8 -39 -4 -6 -1 -7 7 -2 10
6 12 4 7 -8 -3 -9 -2 -19 4 -23 6 -3 8 -12 5 -19 -3 -8 1 -19 9 -25 8 -6 11
-18 8 -26 -3 -8 -1 -20 5 -27 6 -7 13 -24 16 -39 12 -68 11 -68 181 -68 85 0
155 3 155 6 0 19 -47 186 -80 284 -67 198 -67 187 -3 272 30 40 59 82 65 93
15 29 -2 9 -61 -73 -29 -39 -56 -72 -60 -72 -5 0 -17 33 -28 72 l-20 73 40 73
c21 40 38 75 35 77 -2 2 -19 -26 -38 -63 l-34 -66 -17 58 c-13 41 -15 66 -8
89 12 43 10 48 -6 12 -15 -34 -14 -35 -46 63 -10 31 -18 53 -19 47 -1 -10 -70
164 -70 176 0 3 25 26 55 50 30 24 57 50 60 57 3 8 -23 -12 -57 -43 -39 -35
-64 -51 -67 -43 -2 7 -27 69 -56 138 -29 69 -76 179 -103 245 -28 66 -67 156
-88 200 -20 44 -56 130 -80 192 -24 61 -67 158 -95 215 -29 57 -71 142 -95
189 l-42 86 76 -19 c98 -25 249 -23 279 4 16 15 42 18 159 20 l139 2 -100 6
c-96 6 -97 6 -30 9 39 1 106 6 150 10 54 5 85 4 94 -3 18 -14 12 7 -44 145
-49 121 -112 248 -260 529 -156 296 -261 540 -334 780 -87 287 -122 374 -221
560 -92 171 -131 236 -195 325 -99 138 -318 512 -425 725 -55 110 -160 368
-221 545 -27 77 -49 133 -49 125z m-427 -1338 c27 -30 32 -76 11 -111 -21 -35
-30 -37 -61 -16 -40 28 -38 78 5 128 19 21 25 21 45 -1z m-496 -678 c-3 -3
-12 -4 -19 -1 -8 3 -5 6 6 6 11 1 17 -2 13 -5z m-1627 -719 c-8 -27 -11 -78
-8 -130 5 -94 6 -93 -62 -60 -14 6 -60 20 -102 30 -43 11 -78 22 -78 26 0 4
12 17 28 29 15 12 20 18 12 14 -13 -7 -13 -6 0 10 8 11 16 14 18 7 3 -10 174
98 187 119 15 23 17 -1 5 -45z m-294 -174 c-15 -23 151 -71 250 -71 55 0 62
-2 82 -30 l22 -30 -32 6 c-18 3 -38 7 -43 9 -6 1 -75 -2 -154 -7 -129 -8 -145
-7 -162 8 -27 24 -24 66 7 98 27 26 40 34 30 17z m655 -420 c28 -11 76 -57 84
-79 3 -13 11 -19 17 -16 7 4 8 2 4 -5 -4 -7 -4 -20 0 -29 4 -9 8 -24 10 -32
16 -73 25 -118 28 -136 1 -11 7 -27 11 -34 5 -8 4 -11 -2 -7 -5 4 -10 -12 -10
-38 -1 -41 -37 -114 -50 -101 -3 3 -21 -1 -40 -9 -18 -8 -31 -10 -28 -5 8 13
9 13 -50 -6 -87 -28 -89 -27 -145 37 -76 87 -154 101 -180 33 -13 -32 -2 -52
56 -108 53 -52 54 -82 4 -127 -17 -16 -30 -31 -30 -34 1 -21 -2 -25 -15 -25
-8 0 -15 -7 -15 -15 0 -8 -4 -15 -10 -15 -5 0 -10 -6 -10 -13 0 -7 -18 -18
-40 -23 -25 -7 -37 -7 -33 -1 3 6 -7 8 -26 5 -18 -3 -35 0 -38 5 -3 6 -1 7 4
4 14 -9 26 22 15 37 -4 6 -6 22 -5 36 3 30 6 113 4 120 -1 3 -4 29 -7 59 -4
50 -28 119 -45 131 -4 3 -9 12 -11 20 -5 21 -22 39 -33 33 -26 -12 55 50 95
73 25 14 54 36 65 49 11 12 87 71 170 129 149 106 150 107 195 100 25 -4 52
-10 61 -13z m531 -145 c29 -21 100 -61 158 -88 86 -40 120 -51 190 -59 60 -6
88 -14 95 -25 60 -97 133 -197 218 -300 56 -69 140 -172 187 -228 47 -57 118
-141 158 -186 67 -75 115 -142 182 -255 l24 -40 -54 48 c-116 101 -240 198
-350 274 -277 191 -357 248 -390 277 -36 32 -126 101 -275 211 -161 119 -401
309 -453 359 -42 40 -92 112 -92 133 0 2 24 3 53 3 28 1 75 9 102 18 l50 18
72 -61 c40 -33 96 -77 125 -99z m-1045 48 c-3 -3 3 -15 14 -27 12 -13 19 -35
19 -58 0 -34 -5 -41 -70 -89 -38 -29 -70 -56 -70 -61 0 -13 -36 -11 -75 5 -23
10 -41 28 -52 51 -17 36 -17 37 5 53 12 9 43 28 69 42 27 14 72 40 102 57 52
31 72 40 58 27z m1043 -735 c0 11 5 10 20 -4 11 -10 20 -14 20 -9 0 5 4 5 8
-1 4 -5 28 -21 54 -33 25 -13 55 -32 67 -43 11 -10 22 -19 25 -19 3 0 45 -35
79 -67 34 -32 88 -101 98 -124 6 -16 15 -29 20 -29 5 0 9 -6 9 -14 0 -8 13
-28 30 -46 16 -18 27 -36 24 -41 -3 -5 -1 -9 5 -9 5 0 13 -9 16 -20 4 -11 11
-18 16 -15 5 4 9 -1 9 -10 0 -8 7 -18 15 -21 8 -4 13 -9 10 -14 -2 -4 7 -17
20 -30 13 -13 22 -27 19 -31 -3 -5 -1 -9 5 -9 5 0 12 -9 16 -20 3 -11 10 -19
15 -17 4 1 9 -2 10 -8 2 -5 19 -26 39 -46 43 -44 100 -109 94 -109 -2 0 7 -12
21 -27 14 -15 23 -30 20 -34 -2 -4 5 -14 16 -22 12 -8 22 -24 23 -36 1 -11 7
-21 14 -21 7 0 10 -7 7 -15 -4 -8 1 -17 10 -21 9 -3 16 -10 16 -15 0 -5 9 -18
20 -29 11 -11 20 -27 20 -36 0 -8 6 -21 13 -29 31 -33 45 -54 51 -79 6 -23 9
-26 21 -16 12 10 17 7 28 -19 11 -25 16 -28 26 -18 10 9 12 9 9 -3 -2 -8 3
-15 10 -16 25 -3 27 -5 14 -13 -10 -6 -9 -10 7 -14 14 -3 19 -1 14 6 -4 7 1 6
10 -2 14 -11 20 -11 34 0 11 10 14 10 9 2 -6 -12 11 -18 37 -14 4 0 7 -5 7
-13 0 -8 7 -16 14 -19 11 -4 13 -1 9 11 -6 15 -5 15 14 -1 18 -16 22 -16 33
-2 7 8 17 12 22 9 6 -4 14 -1 18 6 6 9 11 9 21 -3 12 -13 15 -12 26 2 10 14
11 13 6 -6 -4 -17 0 -25 18 -32 31 -12 57 -43 51 -61 -3 -9 1 -11 14 -6 10 4
15 4 11 0 -4 -4 4 -19 18 -34 13 -14 26 -34 29 -45 9 -42 19 -65 26 -60 8 5
23 -32 21 -52 -1 -7 2 -13 7 -13 8 0 33 -60 29 -71 -1 -3 4 -13 12 -23 8 -9
11 -19 8 -23 -4 -3 -1 -13 6 -21 10 -13 9 -14 -2 -7 -11 6 -11 3 2 -14 16 -23
13 -49 -7 -64 -7 -5 -2 -7 12 -4 25 6 20 -9 -10 -31 -10 -7 -16 -19 -12 -25 3
-7 -1 -4 -9 6 -20 24 -21 24 -38 11 -16 -13 -59 -1 -59 16 0 6 -4 9 -9 5 -5
-3 -12 4 -16 14 -4 12 -12 18 -21 14 -8 -3 -14 1 -14 11 0 14 -18 21 -43 17
-4 0 -6 4 -5 11 2 7 -4 12 -12 13 -8 0 -15 6 -15 13 0 6 -3 12 -7 12 -13 0
-45 34 -41 43 2 4 -1 8 -6 8 -6 1 -15 2 -20 3 -5 0 -13 5 -18 10 -5 5 -3 6 5
2 6 -4 12 -2 12 3 0 6 -4 11 -10 11 -5 0 -15 11 -22 24 -7 14 -17 25 -23 25
-5 1 -10 7 -10 14 -1 6 -6 11 -12 10 -7 -2 -10 6 -8 17 3 14 -2 20 -13 20 -15
0 -15 2 -2 10 13 8 12 10 -3 10 -10 0 -23 12 -30 28 -7 17 -18 27 -26 24 -8
-2 -11 0 -8 5 7 11 -37 66 -46 57 -3 -3 -8 4 -12 16 -9 29 -36 60 -47 54 -4
-3 -5 1 -2 9 3 9 -3 17 -18 21 -19 5 -20 8 -8 16 13 9 13 10 0 11 -8 1 -18 1
-22 0 -4 0 -10 8 -13 19 -4 11 -11 20 -16 20 -5 0 -9 5 -9 10 0 7 6 7 19 0 11
-5 23 -10 28 -10 4 1 -3 7 -17 14 -13 8 -33 12 -43 10 -10 -1 -20 3 -24 11 -3
8 -10 12 -16 8 -6 -4 -8 0 -4 10 4 12 2 14 -10 10 -11 -4 -14 -3 -9 6 5 8 1
14 -13 18 -12 3 -21 12 -21 19 0 8 -5 14 -11 14 -15 0 -39 26 -39 42 0 10 -3
9 -10 -2 -5 -8 -10 -10 -10 -4 0 6 -11 23 -25 38 -14 15 -25 24 -25 21 0 -3
-6 0 -14 7 -11 10 -11 16 -2 27 8 11 8 13 -1 8 -15 -9 -65 21 -57 34 3 5 -1 9
-9 9 -7 0 -30 17 -49 38 -19 20 -45 43 -56 51 -12 8 -19 18 -16 23 3 4 0 8 -7
8 -13 0 -49 38 -49 52 0 5 -4 7 -9 3 -6 -3 -15 4 -22 16 -6 12 -23 33 -38 46
-14 14 -20 21 -12 17 9 -5 12 -3 7 4 -4 7 -14 12 -22 12 -8 0 -14 7 -14 15 0
8 -4 15 -8 15 -13 0 -72 86 -65 94 3 3 0 6 -8 6 -8 0 -20 13 -27 29 -7 16 -25
42 -39 57 -15 16 -26 31 -25 34 1 3 -6 14 -15 25 -10 11 -17 23 -15 28 1 4 -3
7 -9 7 -5 0 -7 5 -4 10 4 6 1 9 -7 8 -7 -2 -12 3 -10 10 1 6 -3 12 -8 12 -5 0
-10 5 -10 10 0 20 -56 100 -65 93 -4 -5 -5 -3 -2 3 8 14 -17 67 -26 57 -7 -7
-11 12 -8 36 2 8 -2 10 -11 5 -10 -6 -10 -4 1 9 10 13 10 17 1 17 -7 0 -10 8
-7 19 4 15 0 19 -14 16 -13 -3 -19 2 -18 13 1 22 17 61 18 44 1 -8 7 -12 14
-9 6 2 11 11 9 18 -1 8 7 3 18 -11 12 -15 20 -19 20 -11z"/>
<path d="M4730 870 c0 -5 5 -10 10 -10 6 0 10 5 10 10 0 6 -4 10 -10 10 -5 0
-10 -4 -10 -10z"/>
<path d="M4800 749 c0 -5 5 -7 10 -4 6 3 10 8 10 11 0 2 -4 4 -10 4 -5 0 -10
-5 -10 -11z"/>
<path d="M8075 5830 c10 -11 20 -20 23 -20 3 0 -3 9 -13 20 -10 11 -20 20 -23
20 -3 0 3 -9 13 -20z"/>
<path d="M8100 5796 c0 -2 8 -10 18 -17 15 -13 16 -12 3 4 -13 16 -21 21 -21
13z"/>
<path d="M8145 5736 c10 -14 19 -26 22 -26 7 0 -17 39 -28 46 -6 3 -3 -5 6
-20z"/>
<path d="M8175 5684 c5 -10 21 -55 37 -99 19 -54 26 -67 22 -40 -8 52 -42 143
-56 151 -8 5 -9 1 -3 -12z"/>
<path d="M6423 5625 c0 -27 2 -38 4 -22 2 15 2 37 0 50 -2 12 -4 0 -4 -28z"/>
<path d="M9401 5644 c0 -11 3 -14 6 -6 3 7 2 16 -1 19 -3 4 -6 -2 -5 -13z"/>
<path d="M9431 5554 c0 -11 3 -14 6 -6 3 7 2 16 -1 19 -3 4 -6 -2 -5 -13z"/>
<path d="M8242 5475 c0 -16 2 -22 5 -12 2 9 2 23 0 30 -3 6 -5 -1 -5 -18z"/>
<path d="M8251 5424 c0 -11 3 -14 6 -6 3 7 2 16 -1 19 -3 4 -6 -2 -5 -13z"/>
<path d="M3977 4969 c7 -7 15 -10 18 -7 3 3 -2 9 -12 12 -14 6 -15 5 -6 -5z"/>
<path d="M4230 4956 c0 -2 7 -7 16 -10 8 -3 12 -2 9 4 -6 10 -25 14 -25 6z"/>
<path d="M6629 4857 c-41 -99 -44 -106 -30 -87 15 22 73 161 69 166 -3 2 -20
-33 -39 -79z"/>
<path d="M3846 4887 c3 -10 9 -15 12 -12 3 3 0 11 -7 18 -10 9 -11 8 -5 -6z"/>
<path d="M9580 4852 c-25 -27 -28 -33 -11 -21 22 14 60 59 50 59 -2 0 -20 -17
-39 -38z"/>
<path d="M6774 4838 c-9 -18 -32 -55 -52 -83 -28 -40 -30 -45 -9 -27 24 23 94
142 83 142 -3 0 -13 -15 -22 -32z"/>
<path d="M4376 4846 c3 -8 13 -17 22 -21 13 -5 13 -2 -3 15 -21 24 -26 25 -19
6z"/>
<path d="M6895 4823 c9 -21 22 -47 29 -58 16 -26 27 -67 15 -59 -5 3 -17 0
-26 -6 -14 -9 -6 -10 37 -6 30 3 70 6 88 6 38 0 42 18 9 46 -51 44 -104 82
-135 98 l-33 17 16 -38z m155 -98 c11 -13 6 -15 -39 -15 -73 0 -65 22 10 29 9
0 22 -6 29 -14z"/>
<path d="M3798 4843 c6 -2 18 -2 25 0 6 3 1 5 -13 5 -14 0 -19 -2 -12 -5z"/>
<path d="M8360 4810 c6 -11 13 -20 16 -20 2 0 0 9 -6 20 -6 11 -13 20 -16 20
-2 0 0 -9 6 -20z"/>
<path d="M9500 4805 c-14 -8 -20 -14 -15 -14 6 0 21 6 35 14 14 8 21 14 15 14
-5 0 -21 -6 -35 -14z"/>
<path d="M3786 4795 c-9 -26 -7 -32 5 -12 6 10 9 21 6 23 -2 3 -7 -2 -11 -11z"/>
<path d="M9360 4727 c-19 -13 -52 -32 -73 -42 -21 -10 -36 -20 -33 -22 7 -7
114 48 132 69 23 24 16 23 -26 -5z"/>
<path d="M7716 4692 c4 -13 0 -22 -10 -25 -13 -4 -13 -5 1 -3 13 1 23 -13 36
-54 10 -30 20 -71 23 -90 8 -66 16 -100 25 -100 12 0 11 29 0 66 -5 16 -22 70
-37 119 -15 50 -30 94 -35 99 -4 5 -5 0 -3 -12z"/>
<path d="M6800 4680 c-8 -5 -10 -10 -5 -10 6 0 17 5 25 10 8 5 11 10 5 10 -5
0 -17 -5 -25 -10z"/>
<path d="M9150 4615 c-14 -8 -20 -14 -15 -14 6 0 21 6 35 14 14 8 21 14 15 14
-5 0 -21 -6 -35 -14z"/>
<path d="M3715 4551 c-3 -5 -1 -12 4 -15 5 -3 11 1 15 9 6 16 -9 21 -19 6z"/>
<path d="M3380 4529 c-263 -38 -909 -140 -1177 -186 l-273 -47 0 -58 c0 -32 3
-58 7 -58 3 0 70 11 147 24 78 14 265 43 416 66 151 22 320 49 375 59 55 11
132 22 170 25 39 4 88 9 110 12 57 7 -164 -53 -261 -71 -280 -52 -558 -177
-695 -311 -151 -150 -172 -222 -100 -355 49 -91 105 -157 157 -184 22 -10 62
-33 89 -50 50 -31 85 -48 85 -41 0 2 -13 12 -29 23 -16 10 -52 47 -80 82 -43
53 -51 70 -51 105 0 110 53 175 286 356 184 143 231 173 359 232 103 47 444
178 464 178 7 0 60 17 119 39 59 21 139 46 177 55 74 19 106 36 65 36 -19 0
-21 3 -12 12 7 7 12 21 12 31 0 18 -1 18 -25 3 -24 -16 -27 -16 -42 0 -26 25
-78 44 -120 43 -21 -1 -99 -10 -173 -20z"/>
<path d="M7019 4546 c-2 -2 -28 -7 -58 -10 -38 -4 -81 -21 -140 -52 -90 -48
-138 -82 -63 -45 59 30 200 82 239 88 25 4 32 1 38 -17 4 -12 5 -24 2 -26 -2
-3 -40 -13 -83 -24 -102 -24 -214 -64 -287 -103 -86 -45 -61 -44 29 1 65 33
250 89 391 119 18 4 20 9 13 33 -7 25 -5 29 13 33 12 2 -3 5 -34 6 -31 0 -58
-1 -60 -3z m59 -55 c-5 -2 -15 2 -21 8 -9 9 -8 14 3 21 11 7 17 4 21 -8 4 -9
2 -19 -3 -21z"/>
<path d="M8910 4535 c-19 -7 -28 -14 -20 -14 8 0 29 6 45 14 39 17 21 18 -25
0z"/>
<path d="M8401 4524 c0 -11 3 -14 6 -6 3 7 2 16 -1 19 -3 4 -6 -2 -5 -13z"/>
<path d="M8795 4500 c-13 -5 -14 -9 -5 -9 8 0 24 4 35 9 13 5 14 9 5 9 -8 0
-24 -4 -35 -9z"/>
<path d="M8390 4497 c0 -4 -9 -39 -19 -77 -11 -39 -17 -70 -13 -70 9 0 44 141
37 148 -3 3 -5 2 -5 -1z"/>
<path d="M8730 4480 c-18 -12 -2 -12 25 0 13 6 15 9 5 9 -8 0 -22 -4 -30 -9z"/>
<path d="M8688 4463 c7 -3 16 -2 19 1 4 3 -2 6 -13 5 -11 0 -14 -3 -6 -6z"/>
<path d="M8648 4453 c7 -3 16 -2 19 1 4 3 -2 6 -13 5 -11 0 -14 -3 -6 -6z"/>
<path d="M6491 4430 c-13 -11 -19 -20 -14 -20 6 0 18 9 28 20 23 25 17 25 -14
0z"/>
<path d="M8598 4443 c6 -2 18 -2 25 0 6 3 1 5 -13 5 -14 0 -19 -2 -12 -5z"/>
<path d="M6670 4400 c-9 -6 -10 -10 -3 -10 6 0 15 5 18 10 8 12 4 12 -15 0z"/>
<path d="M7771 4344 c0 -11 3 -14 6 -6 3 7 2 16 -1 19 -3 4 -6 -2 -5 -13z"/>
<path d="M6446 4335 c4 -8 11 -15 16 -15 6 0 5 6 -2 15 -7 8 -14 15 -16 15 -2
0 -1 -7 2 -15z"/>
<path d="M7095 4331 c-29 -6 -29 -7 -7 -13 16 -4 23 -13 20 -25 -2 -13 -18
-21 -58 -30 -30 -6 -45 -12 -32 -12 20 -1 90 12 130 25 10 3 9 10 -3 34 -8 16
-17 29 -18 29 -1 -1 -15 -4 -32 -8z"/>
<path d="M7003 4313 c9 -2 23 -2 30 0 6 3 -1 5 -18 5 -16 0 -22 -2 -12 -5z"/>
<path d="M8380 4319 c0 -4 7 -26 15 -50 9 -23 11 -45 7 -48 -5 -3 3 -33 18
-66 l27 -60 7 41 c6 36 2 50 -33 115 -23 41 -41 71 -41 68z"/>
<path d="M6825 4275 c-25 -12 -26 -14 -5 -9 28 7 60 23 45 23 -5 0 -23 -6 -40
-14z"/>
<path d="M7746 4267 c-3 -13 -16 -29 -28 -36 -13 -6 -16 -10 -7 -7 9 2 21 0
26 -5 7 -7 12 3 16 27 7 43 2 57 -7 21z"/>
<path d="M6958 4243 c6 -2 18 -2 25 0 6 3 1 5 -13 5 -14 0 -19 -2 -12 -5z"/>
<path d="M6908 4233 c7 -3 16 -2 19 1 4 3 -2 6 -13 5 -11 0 -14 -3 -6 -6z"/>
<path d="M6801 4196 c-30 -12 -56 -28 -58 -36 -3 -10 -2 -11 4 -4 4 6 24 16
43 23 39 13 91 41 75 40 -5 -1 -34 -11 -64 -23z"/>
<path d="M7561 4179 c-138 -47 -283 -66 -339 -42 -19 8 -36 12 -38 10 -4 -4
158 -301 201 -367 16 -25 42 -76 58 -115 15 -38 35 -83 43 -100 75 -156 168
-439 199 -605 65 -356 95 -558 96 -660 1 -51 4 -75 8 -60 l7 25 17 -25 c26
-41 48 -100 41 -112 -4 -6 -3 -8 3 -5 25 16 45 -120 60 -401 7 -147 5 -150
-157 -173 -46 -7 -41 -7 26 -3 l81 4 6 -41 c3 -22 12 -46 20 -52 8 -7 83 -124
165 -262 83 -137 166 -271 184 -297 18 -26 53 -77 78 -113 81 -118 224 -309
292 -392 70 -85 272 -305 330 -361 l34 -32 235 2 234 3 70 115 c86 140 167
266 195 302 11 14 20 31 20 36 0 6 11 24 25 40 52 61 102 182 110 261 17 188
-3 416 -56 626 -24 96 -128 372 -177 470 -45 90 -91 161 -169 257 -34 42 -85
112 -114 155 -29 43 -69 98 -90 123 -20 25 -61 88 -90 140 -29 52 -79 136
-111 185 -33 50 -107 185 -165 300 -149 295 -257 453 -473 691 -80 88 -191
184 -212 184 -7 0 -68 -16 -135 -36 l-122 -37 -33 20 c-24 14 -43 41 -71 98
-22 44 -44 83 -49 86 -6 4 -7 12 -3 19 5 8 4 11 -3 6 -9 -5 -45 52 -96 151 -6
13 -13 22 -16 22 -3 -1 -56 -19 -119 -40z m683 -1441 c-5 -8 -2 -9 9 -5 9 3
16 3 16 -1 -1 -4 2 -17 6 -30 6 -18 10 -20 21 -11 11 9 14 8 14 -5 0 -9 8 -16
20 -16 14 0 18 -5 13 -17 -4 -10 -2 -14 4 -10 6 4 14 0 17 -9 4 -9 2 -13 -5
-8 -6 3 -3 -5 6 -20 10 -14 22 -26 28 -26 6 0 8 -3 4 -6 -9 -9 28 -74 52 -91
12 -8 21 -20 21 -27 0 -15 40 -64 40 -50 1 5 6 -1 13 -13 7 -12 27 -38 45 -58
21 -23 31 -42 28 -52 -5 -13 -4 -13 8 -4 11 9 15 8 20 -5 3 -9 4 -20 0 -25 -3
-5 0 -9 5 -9 6 0 11 -9 11 -20 0 -11 4 -20 9 -20 5 0 13 -9 16 -20 4 -11 10
-18 15 -15 5 3 11 -3 14 -13 4 -10 21 -34 40 -53 19 -18 32 -37 29 -41 -2 -5
3 -8 11 -8 9 0 16 -4 16 -10 0 -5 32 -40 71 -77 121 -115 127 -121 134 -143 4
-12 9 -19 13 -16 3 4 24 -31 47 -78 23 -46 60 -111 83 -145 23 -33 39 -61 35
-61 -4 0 2 -7 14 -15 11 -8 33 -38 48 -67 15 -28 36 -64 47 -79 17 -23 50 -99
62 -144 5 -17 25 -64 53 -123 15 -31 26 -58 25 -60 -1 -1 5 -18 13 -38 11 -27
15 -71 14 -168 -1 -114 1 -137 21 -181 12 -27 30 -60 41 -71 20 -22 34 -107
21 -129 -4 -5 -7 -16 -8 -23 -2 -8 -10 -22 -20 -33 -9 -10 -13 -19 -9 -19 4 0
-7 -14 -25 -32 -29 -27 -41 -32 -92 -34 -32 -1 -100 7 -151 17 -184 39 -253
60 -307 95 -57 36 -107 63 -111 61 -2 -1 -3 0 -2 2 2 2 -11 14 -27 26 -16 12
-27 25 -23 28 3 4 -1 7 -9 7 -9 0 -29 14 -45 31 -15 17 -41 43 -57 58 -30 28
-83 100 -84 115 0 5 -5 12 -10 15 -5 3 -31 51 -57 105 -25 55 -54 106 -63 114
-12 9 -12 11 -2 6 11 -6 10 -2 -2 13 -10 11 -18 27 -18 36 0 9 -4 17 -8 17 -9
0 -53 87 -53 105 0 6 -6 17 -13 25 -8 8 -19 32 -27 52 -7 20 -15 35 -19 33 -3
-2 -6 4 -7 13 -1 36 -28 152 -34 152 -6 0 -19 66 -23 112 -1 3 -4 10 -8 14 -5
4 -8 20 -8 35 0 15 -4 38 -9 51 -5 13 -12 46 -16 73 -4 28 -9 59 -10 70 -10
65 -16 116 -20 160 -2 28 -7 79 -10 115 -17 178 -22 326 -11 350 4 9 5 27 3
40 -3 14 0 31 5 37 6 7 8 32 7 57 -3 37 -2 42 10 33 12 -10 12 -9 3 10 -9 16
-9 22 0 25 7 3 13 13 14 24 0 10 1 35 2 54 2 27 5 31 12 20 8 -12 10 -12 11 5
0 16 3 14 14 -10 l14 -30 1 38 c0 20 5 37 11 37 5 0 7 -5 3 -12z"/>
<path d="M8191 2664 c0 -11 3 -14 6 -6 3 7 2 16 -1 19 -3 4 -6 -2 -5 -13z"/>
<path d="M6730 4133 c0 -4 5 -15 10 -23 8 -13 10 -13 10 2 0 9 -4 20 -10 23
-5 3 -10 3 -10 -2z"/>
<path d="M6883 4113 c9 -2 23 -2 30 0 6 3 -1 5 -18 5 -16 0 -22 -2 -12 -5z"/>
<path d="M6823 4103 c9 -2 23 -2 30 0 6 3 -1 5 -18 5 -16 0 -22 -2 -12 -5z"/>
<path d="M6812 2260 c0 -14 2 -19 5 -12 2 6 2 18 0 25 -3 6 -5 1 -5 -13z"/>
<path d="M7295 2210 c10 -11 20 -20 23 -20 3 0 -3 9 -13 20 -10 11 -20 20 -23
20 -3 0 3 -9 13 -20z"/>
<path d="M7790 2176 c0 -24 -5 -36 -17 -39 -14 -4 -12 -5 5 -6 19 -1 22 4 22
39 0 22 -2 40 -5 40 -3 0 -5 -15 -5 -34z"/>
<path d="M6822 2155 c0 -16 2 -22 5 -12 2 9 2 23 0 30 -3 6 -5 -1 -5 -18z"/>
<path d="M7377 2120 c34 -35 64 -62 65 -60 2 3 -26 32 -62 65 l-65 59 62 -64z"/>
<path d="M7630 2088 c-14 -6 -45 -14 -70 -18 l-45 -7 40 -1 c22 0 58 8 80 18
42 20 38 26 -5 8z"/>
<path d="M6837 1995 c3 -38 7 -72 9 -74 7 -8 2 84 -6 114 -5 18 -6 2 -3 -40z"/>
<path d="M6840 1830 c0 -11 4 -20 9 -20 5 0 7 9 4 20 -3 11 -7 20 -9 20 -2 0
-4 -9 -4 -20z"/>
<path d="M6955 1841 c-59 -5 -67 -8 -50 -17 22 -13 205 -23 205 -12 0 3 -3 13
-6 22 -6 17 -18 17 -149 7z"/>
<path d="M7213 1765 l28 -16 -32 -60 c-18 -32 -29 -62 -26 -65 3 -3 20 22 37
55 36 67 37 67 88 11 l24 -25 -21 30 c-35 51 -45 61 -66 67 -11 3 -29 9 -40
13 -11 3 -7 -1 8 -10z"/>
<path d="M7400 1594 c0 -3 21 -14 48 -26 34 -15 73 -21 142 -23 l95 -3 -90 7
c-49 5 -114 17 -142 29 -29 11 -53 18 -53 16z"/>
<path d="M7130 1550 c-6 -11 -8 -20 -6 -20 3 0 10 9 16 20 6 11 8 20 6 20 -3
0 -10 -9 -16 -20z"/>
<path d="M7066 1425 c-13 -25 -21 -43 -15 -40 10 7 52 85 45 85 -2 0 -16 -20
-30 -45z"/>
<path d="M7892 1425 c0 -16 2 -22 5 -12 2 9 2 23 0 30 -3 6 -5 -1 -5 -18z"/>
<path d="M6985 1320 c-16 -16 -26 -32 -23 -35 3 -3 17 10 32 30 33 43 29 45
-9 5z"/>
<path d="M7147 1288 c-4 -32 -14 -83 -22 -114 -8 -32 -13 -60 -10 -62 5 -6 7
-1 29 94 10 39 16 86 14 105 -3 28 -4 24 -11 -23z"/>
<path d="M7910 1298 c0 -9 5 -20 10 -23 13 -8 13 5 0 25 -8 13 -10 13 -10 -2z"/>
<path d="M7922 1230 c0 -8 4 -26 8 -40 6 -20 8 -21 8 -5 0 11 -3 29 -8 40 -5
12 -8 14 -8 5z"/>
<path d="M7446 1135 c-48 -74 -51 -80 -35 -68 15 12 64 93 56 93 -3 0 -12 -11
-21 -25z"/>
<path d="M7653 1097 c-12 -17 -32 -45 -45 -62 -21 -29 -21 -29 -1 -12 12 10
34 36 49 58 15 21 30 39 35 39 4 0 12 -12 17 -27 6 -16 11 -22 11 -15 1 20
-18 52 -32 52 -7 0 -22 -15 -34 -33z"/>
<path d="M7101 1074 c0 -11 3 -14 6 -6 3 7 2 16 -1 19 -3 4 -6 -2 -5 -13z"/>
<path d="M7369 1023 c-13 -16 -12 -17 4 -4 9 7 17 15 17 17 0 8 -8 3 -21 -13z"/>
<path d="M7722 1015 c0 -16 2 -22 5 -12 2 9 2 23 0 30 -3 6 -5 -1 -5 -18z"/>
<path d="M7092 995 c0 -16 2 -22 5 -12 2 9 2 23 0 30 -3 6 -5 -1 -5 -18z"/>
<path d="M7539 953 c-13 -16 -12 -17 4 -4 9 7 17 15 17 17 0 8 -8 3 -21 -13z"/>
<path d="M7494 893 c-15 -20 -23 -33 -16 -29 13 8 56 66 49 66 -3 0 -17 -17
-33 -37z"/>
<path d="M7748 833 c5 -21 7 -23 10 -9 2 10 0 22 -6 28 -6 6 -7 0 -4 -19z"/>
<path d="M7766 763 c9 -37 32 -93 38 -93 3 0 -4 27 -16 60 -21 62 -33 81 -22
33z"/>
<path d="M7850 655 c-14 -8 -20 -14 -14 -15 5 0 19 7 30 15 24 18 16 19 -16 0z"/>
</g>
</svg>
